# xmcd
#
# Track frame offsets: 
#        183
#        14195
#        27595
#        44308
#        61495
#        78883
#        96933
#        114408
#        130395
#        147183
#        163870
#        178858
#        193733
#        214758
#        231733
#        247508
#        262533
#        279183
#
# Disc length: 3914 seconds
#
# Revision: 1
# Processed by: cddbd v1.5.2PL0 Copyright (c) Steve Scherf et al.
# Submitted via: ExactAudioCopyFreeDBPlugin 1.0
#
DISCID=010f4812
DTITLE=Συλλογικός δίσκος - Τα καλύτερα δημοτικά τραγούδια-Τσάμικα
DYEAR=2005
DGENRE=Παραδοσιακή
TTITLE0=Μετζελόπουλος Κώστας - Ένας αητός καθότανε [παραδοσιακό]
TTITLE1=Φραγκούλη Κική - Ιτιά [παραδοσιακό]
TTITLE2=Στίγκα Θεοδωσία - Η μαυριδερούλα [παραδοσιακό]
TTITLE3=Βέρρα Ευγενία - Όλες οι δάφνες [παραδοσιακό]
TTITLE4=Ανδριόπουλος Ανδρέας - Τούτη γης κυρα Γιώργαινα [παραδοσιακό]
TTITLE5=Μετζελόπουλος Κώστας - Τρία καλά 'ναι στον ντουνιά [παραδοσιακ
TTITLE5=ό]
TTITLE6=Φραγκούλη Κική - Πουλάκι ξένο [παραδοσιακό]
TTITLE7=Στίγκα Θεοδωσία - Μιά μικρή τσελιγκοπούλα [παραδοσιακό]
TTITLE8=Ανδριόπουλος Ανδρέας - Μαριόλικο [παραδοσιακό]
TTITLE9=Ανδριόπουλος Ανδρέας - Αγγέλω κρένει η μάννα σου [παραδοσιακό]
TTITLE10=Φραγκούλη Κική - Ο ήλιος [παραδοσιακό]
TTITLE11=Βέρρα Ευγενία - Η νερατζούλα [παραδοσιακό]
TTITLE12=Ανδριόπουλος Ανδρέας - Απάνω στην τριανταφυλλιά [παραδοσιακό]
TTITLE13=Βέρρα Ευγενία - Μωρή κακιά γειτόνισσα [παραδοσιακό]
TTITLE14=Φραγκούλη Κική - Ένας λεβέντης χόρευε [παραδοσιακό]
TTITLE15=Ανδριόπουλος Ανδρέας - Κόβω μιά κλάρα [παραδοσιακό]
TTITLE16=Φραγκούλη Κική - Κόφ' την Ελένη την ελιά [παραδοσιακό]
TTITLE17=Μετζελόπουλος Κώστας - Νά 'σαν τα νιάτα δυό φορές [παραδοσιακ
TTITLE17=ό]
EXTD=YEAR: 2005\n
EXTT0=
EXTT1=
EXTT2=
EXTT3=
EXTT4=
EXTT5=
EXTT6=
EXTT7=
EXTT8=
EXTT9=
EXTT10=
EXTT11=
EXTT12=
EXTT13=
EXTT14=
EXTT15=
EXTT16=
EXTT17=
PLAYORDER=
